<?xml version="1.0" encoding="UTF-8"?>
<svg width="1200pt" height="1200pt" version="1.1" viewBox="0 0 1200 1200" xmlns="http://www.w3.org/2000/svg">
 <g fill="#fff">
  <path d="m1175.5 853.28c-1.9531-4.1602-6.1914-6.875-10.82-6.875h-63.828v-582.62c0-6.6406-5.3711-11.973-11.973-11.973h-977.77c-6.6016 0-11.973 5.332-11.973 11.973v582.62h-63.828c-4.2773 0-8.2031 2.3047-10.352 5.9961-2.1484 3.6914-2.1484 8.2227-0.039063 11.973 4.1211 7.1484 41.113 70.566 70.605 82.871 1.4648 0.64453 3.0469 0.9375 4.6289 0.9375h981.74c1.6602 0 3.2617-0.33203 4.7852-0.97656 30.312-13.242 81.484-74.238 87.227-81.152 2.9688-3.5938 3.5938-8.5547 1.6016-12.773zm-1052.4-577.52h953.83v570.64h-953.83zm343.73 594.59h266.37v14.98h-266.37zm612.38 53.887h-976.35c-13.008-7.0117-31.973-32.031-46.172-53.887h386.19v26.953c0 6.6406 5.3516 11.973 11.973 11.973h290.31c6.6211 0 11.973-5.332 11.973-11.973v-26.953h381.25c-18.184 20.117-43.438 45.742-59.18 53.887z"/>
  <path d="m1053.3 818.5v-514.8c0-6.6406-5.3516-11.973-11.973-11.973h-882.73c-6.6211 0-11.973 5.332-11.973 11.973v514.8c0 6.6406 5.3516 11.973 11.973 11.973h882.73c6.6211 0 11.973-5.332 11.973-11.973zm-23.945-11.973h-858.79v-490.86h858.79z"/>
 </g>
</svg>
