<?xml version="1.0" encoding="UTF-8"?>
<svg width="1200pt" height="1200pt" version="1.1" viewBox="0 0 1200 1200" xmlns="http://www.w3.org/2000/svg">
 <path d="m600 1125c207.56 0 396-122.62 480.19-312.56 3.1875-7.125 1.6875-15.562-3.75-21-5.625-5.4375-13.875-6.9375-21-3.75-61.875 27.375-128.25 41.438-197.06 41.438-268.88 0-487.5-218.62-487.5-487.5 0-68.812 13.875-135.19 41.438-197.06 3.1875-7.125 1.6875-15.375-3.75-21-5.625-5.4375-13.875-6.9375-21-3.75-189.75 84.188-312.56 272.62-312.56 480.19 0 289.5 235.5 525 525 525z"/>
</svg>
