<?xml version="1.0" encoding="UTF-8"?>
<svg width="1200pt" height="1200pt" version="1.1" viewBox="0 0 1200 1200" xmlns="http://www.w3.org/2000/svg">
 <g fill="#ff814a">
  <path d="m600 461.76c-36.664 0-71.824 14.562-97.75 40.488s-40.488 61.086-40.488 97.75 14.562 71.824 40.488 97.75 61.086 40.488 97.75 40.488 71.824-14.562 97.75-40.488 40.488-61.086 40.488-97.75c-0.0625-36.645-14.648-71.77-40.559-97.68-25.91-25.91-61.035-40.496-97.68-40.559zm0 239.28v-0.003907c-26.797 0-52.496-10.645-71.445-29.594-18.949-18.949-29.594-44.648-29.594-71.445s10.645-52.496 29.594-71.445c18.949-18.949 44.648-29.594 71.445-29.594s52.496 10.645 71.445 29.594c18.949 18.949 29.594 44.648 29.594 71.445-0.03125 26.789-10.688 52.469-29.629 71.41s-44.621 29.598-71.41 29.629z"/>
  <path d="m600 782.16c-4.9414-0.03125-9.6914 1.918-13.188 5.4141-3.4961 3.4922-5.4453 8.2422-5.4141 13.188v51.238c0 6.6445 3.5469 12.785 9.3008 16.109 5.7539 3.3203 12.848 3.3203 18.602 0 5.7539-3.3242 9.3008-9.4648 9.3008-16.109v-51.238c0.03125-4.9453-1.918-9.6953-5.4141-13.188-3.4961-3.4961-8.2461-5.4453-13.188-5.4141z"/>
  <path d="m600 417.84c4.9414 0.03125 9.6914-1.918 13.188-5.4141 3.4961-3.4922 5.4453-8.2422 5.4141-13.188v-50.637c0-6.6484-3.5469-12.785-9.3008-16.109-5.7539-3.3242-12.848-3.3242-18.602 0-5.7539 3.3242-9.3008 9.4609-9.3008 16.109v50.641-0.003907c-0.03125 4.9453 1.918 9.6953 5.4141 13.188 3.4961 3.4961 8.2461 5.4453 13.188 5.4141z"/>
  <path d="m444.84 728.76-36 36c-4.3633 4.7539-5.9492 11.434-4.1875 17.645 1.7578 6.2109 6.6133 11.062 12.824 12.824 6.207 1.7578 12.887 0.17188 17.645-4.1914l36-36c4.1445-4.8164 5.5625-11.406 3.7656-17.504s-6.5664-10.863-12.66-12.66c-6.0977-1.7969-12.688-0.37891-17.508 3.7656z"/>
  <path d="m741.96 476.64c4.8984-0.007813 9.6016-1.9492 13.078-5.4023l36-36c4.3633-4.7539 5.9492-11.434 4.1914-17.645-1.7617-6.2109-6.6133-11.062-12.824-12.824-6.2109-1.7578-12.891-0.17188-17.645 4.1914l-36 36c-3.4609 3.4961-5.3945 8.2188-5.3789 13.141 0.015626 4.918 1.9805 9.6289 5.4609 13.102 3.4805 3.4766 8.1992 5.4297 13.117 5.4375z"/>
  <path d="m417.84 600c0.03125-4.9414-1.918-9.6914-5.4141-13.188-3.4922-3.4961-8.2422-5.4453-13.188-5.4141h-50.637c-6.6484 0-12.785 3.5469-16.109 9.3008-3.3242 5.7539-3.3242 12.848 0 18.602 3.3242 5.7539 9.4609 9.3008 16.109 9.3008h50.641-0.003907c4.9453 0.03125 9.6953-1.918 13.188-5.4141 3.4961-3.4961 5.4453-8.2461 5.4141-13.188z"/>
  <path d="m852 581.4h-51.238c-6.6484 0-12.789 3.5469-16.109 9.3008-3.3242 5.7539-3.3242 12.848 0 18.602 3.3203 5.7539 9.4609 9.3008 16.109 9.3008h51.238c6.6445 0 12.785-3.5469 16.109-9.3008 3.3203-5.7539 3.3203-12.848 0-18.602-3.3242-5.7539-9.4648-9.3008-16.109-9.3008z"/>
  <path d="m444.84 471.24c4.8164 4.1484 11.41 5.5664 17.504 3.7695 6.0977-1.8008 10.863-6.5664 12.664-12.664 1.7969-6.0938 0.37891-12.688-3.7695-17.504l-36-36c-4.7539-4.3633-11.434-5.9492-17.645-4.1875-6.2109 1.7578-11.062 6.6133-12.824 12.824-1.7578 6.207-0.17188 12.887 4.1914 17.645z"/>
  <path d="m755.04 728.76c-4.7539-4.3672-11.434-5.9492-17.645-4.1914-6.2109 1.7617-11.062 6.6133-12.824 12.824-1.7578 6.2109-0.17578 12.891 4.1914 17.645l36 36c4.7539 4.3633 11.434 5.9492 17.645 4.1914 6.2109-1.7617 11.062-6.6133 12.824-12.824 1.7578-6.2109 0.17188-12.891-4.1914-17.645z"/>
 </g>
</svg>
