<?xml version="1.0" encoding="UTF-8"?>
<svg width="1200pt" height="1200pt" version="1.1" viewBox="0 0 1200 1200" xmlns="http://www.w3.org/2000/svg">
 <g fill="#fff">
  <path d="m553.5 1122.8c15.375 1.5 30.75 2.25 46.5 2.25s31.125-0.75 46.5-2.25c20.625-17.25 41.25-46.5 59.625-85.5 27.75-57.375 51.375-136.5 65.625-229.5h-343.5c14.25 93 37.875 172.12 65.625 229.5 18.375 39 39 68.25 59.625 85.5z"/>
  <path d="m91.875 732.75h251.62c-4.125-43.875-6-88.5-6-132.75s1.875-88.875 6-132.75h-251.62c-10.875 42.375-16.875 87-16.875 132.75s6 90.375 16.875 132.75z"/>
  <path d="m999 807.75h-151.12c-10.125 69.75-25.125 136.12-45.75 194.25-12.375 36.375-27 69.75-43.5 98.625 145.5-46.125 263.62-154.12 323.62-292.88z"/>
  <path d="m1030.1 467.25h-173.62c4.125 43.875 6 88.5 6 132.75s-1.875 88.875-6 132.75h251.62c10.875-42.375 16.875-87 16.875-132.75s-6-90.375-16.875-132.75z"/>
  <path d="m1082.2 392.25c-60-138.75-178.12-246.75-323.62-292.88 16.5 28.875 31.125 62.25 43.5 98.625 20.625 58.125 35.625 124.5 45.75 194.25z"/>
  <path d="m646.5 77.25c-15.375-1.5-30.75-2.25-46.5-2.25s-31.125 0.75-46.5 2.25c-20.625 17.25-41.25 46.5-59.625 85.5-27.75 57.375-51.375 136.5-65.625 229.5h343.5c-14.25-93-37.875-172.12-65.625-229.5-18.375-39-39-68.25-59.625-85.5z"/>
  <path d="m117.75 807.75c60 138.75 178.12 246.75 323.62 292.88-16.5-28.875-31.125-62.25-43.5-98.625-20.625-58.125-35.625-124.5-45.75-194.25z"/>
  <path d="m117.75 392.25h234.38c10.125-69.75 25.125-136.12 45.75-194.25 12.375-36.375 27-69.75 43.5-98.625-145.5 46.125-263.62 154.12-323.62 292.88z"/>
  <path d="m787.5 600c0-46.125-2.25-90.375-6-132.75h-362.62c-4.125 42.375-6.375 86.625-6.375 132.75s2.25 90.375 6.375 132.75h362.62c3.75-42.375 6-86.625 6-132.75z"/>
 </g>
</svg>
